<svg width="46" height="46" viewBox="0 0 46 46" fill="none" xmlns="http://www.w3.org/2000/svg">
<path d="M32.5837 40.25V36.4167C32.5837 34.3833 31.7759 32.4333 30.3381 30.9955C28.9004 29.5577 26.9503 28.75 24.917 28.75H9.58366C7.55033 28.75 5.60029 29.5577 4.16251 30.9955C2.72473 32.4333 1.91699 34.3833 1.91699 36.4167V40.25" stroke="#919191" stroke-width="3.83333" stroke-linecap="round" stroke-linejoin="round"/>
<path d="M17.2497 21.0833C21.4839 21.0833 24.9163 17.6508 24.9163 13.4167C24.9163 9.18248 21.4839 5.75 17.2497 5.75C13.0155 5.75 9.58301 9.18248 9.58301 13.4167C9.58301 17.6508 13.0155 21.0833 17.2497 21.0833Z" stroke="#919191" stroke-width="3.83333" stroke-linecap="round" stroke-linejoin="round"/>
<path d="M44.083 40.25V36.4166C44.0817 34.718 43.5164 33.0678 42.4756 31.7252C41.4349 30.3827 39.9778 29.4238 38.333 28.9991" stroke="#919191" stroke-width="3.83333" stroke-linecap="round" stroke-linejoin="round"/>
<path d="M30.667 5.99915C32.3161 6.42139 33.7778 7.38049 34.8216 8.72524C35.8655 10.07 36.432 11.7239 36.432 13.4262C36.432 15.1286 35.8655 16.7825 34.8216 18.1272C33.7778 19.472 32.3161 20.4311 30.667 20.8533" stroke="#919191" stroke-width="3.83333" stroke-linecap="round" stroke-linejoin="round"/>
</svg>
