<svg width="27" height="27" viewBox="0 0 27 27" fill="none" xmlns="http://www.w3.org/2000/svg">
<g clip-path="url(#clip0)">
<path d="M21.4302 14.0502C21.2403 9.91582 21.3669 2.74395 21.3036 1.79473C21.2403 0.845508 20.7341 0.0439453 19.5317 0.0439453C18.3294 0.0439453 17.9919 1.03535 17.9286 2.04785C17.8653 3.16582 17.1481 11.2447 17.1481 11.2447C17.1481 11.2447 16.9372 11.7299 16.5786 11.0338C16.3466 10.5908 15.756 10.0635 14.87 10.19C13.7099 10.3588 13.6255 10.865 13.4356 11.7932C13.2458 12.7002 13.2247 11.8775 12.6552 11.2447C12.4231 10.9916 11.7692 10.6752 11.1575 10.7596C10.3771 10.8861 9.65986 11.54 9.51221 12.3627C9.36455 13.1854 8.94268 12.4893 8.68955 12.1518C8.45752 11.8143 7.74033 11.54 7.06533 11.7721C6.39033 12.0041 5.63096 12.4893 5.58877 13.6072C5.54658 14.7252 5.01924 19.3447 6.01065 22.2135C6.81221 24.5971 9.84971 27.0229 13.7942 27.0229C18.4981 27.0229 22.1896 23.7744 22.1896 19.9354C22.2106 17.4463 21.4935 15.6955 21.4302 14.0502Z" fill="#FAC036"/>
<path d="M5.44238 16.791C5.44238 16.791 5.44238 14.5972 4.97832 11.9394C4.7252 10.5683 3.96582 5.56908 3.96582 4.40893C3.96582 2.53158 6.34941 1.85658 6.77129 3.94486C7.0666 5.44252 7.95254 8.79643 8.31113 10.6105C8.50098 11.5808 8.90176 12.4878 9.17598 12.7621C9.55566 13.1417 9.91426 12.4456 9.91426 12.4456L9.89316 15.4831L5.44238 16.791Z" fill="#FAC036"/>
<path d="M19.5746 17.5279C19.5746 17.5279 19.4902 17.5068 19.3426 17.4435C19.1949 17.3802 18.984 17.2958 18.7308 17.1904C18.4777 17.0638 18.1613 16.9162 17.8238 16.7685C17.4652 16.5997 17.0644 16.431 16.6004 16.2412C16.1363 16.0724 15.6301 15.8404 15.1238 15.6294C14.6176 15.4185 14.0691 15.1865 13.5207 15.0177C13.373 14.9755 13.2465 14.9544 13.1199 14.9333C12.9933 14.9122 12.8457 14.9122 12.8035 14.9122L12.698 14.9333L12.6348 14.9755C12.5926 14.9966 12.5293 15.0177 12.4871 15.0388C12.4027 15.1021 12.3183 15.1654 12.2762 15.2497C12.1496 15.4185 12.1285 15.6505 12.1496 15.9247C12.1496 15.988 12.1707 16.0513 12.1707 16.1146V16.199L12.1918 16.3255C12.2129 16.4099 12.234 16.4732 12.2551 16.5365C12.2762 16.5997 12.2973 16.6841 12.3394 16.7474C12.5504 17.2958 12.909 17.8021 13.3519 18.1396C13.4574 18.224 13.584 18.3083 13.7105 18.3716C13.8371 18.4349 13.9426 18.4771 14.1113 18.5404C14.4066 18.6458 14.7019 18.7724 14.9762 18.8779C15.2715 18.9833 15.5457 19.0888 15.8199 19.1943C15.9676 19.2365 16.0941 19.2997 16.2207 19.3419C16.3683 19.4052 16.4527 19.4052 16.6848 19.5318C17.0012 19.7427 17.2121 20.0169 17.3387 20.2912C17.4863 20.5654 17.5496 20.8607 17.5918 21.1349C17.5918 21.1982 17.6129 21.2826 17.6129 21.3458V21.5357C17.6129 21.6201 17.5918 21.6833 17.5918 21.7466C17.5707 21.8099 17.5707 21.8732 17.5496 21.9365C17.4863 22.1896 17.3808 22.4216 17.2754 22.6115C17.0433 23.0122 16.7691 23.2654 16.516 23.4552C16.2629 23.6451 16.0308 23.7294 15.8832 23.7927C15.7355 23.8349 15.6512 23.8771 15.6512 23.8771C15.5668 23.8982 15.4613 23.856 15.4402 23.7716C15.4191 23.6872 15.4402 23.624 15.5035 23.5818H15.5246L15.7144 23.4552C15.841 23.3708 16.0098 23.2443 16.1785 23.0544C16.3683 22.8646 16.5582 22.6115 16.7058 22.3162C16.7902 22.1685 16.8324 21.9787 16.8746 21.8099C16.8746 21.7677 16.8957 21.7255 16.8957 21.6622V21.5357V21.388C16.8957 21.3458 16.8957 21.2826 16.8746 21.2404C16.8535 21.0294 16.7902 20.8185 16.6848 20.6287C16.5793 20.4388 16.4316 20.249 16.284 20.1646C16.2629 20.1435 16.0941 20.0802 15.9676 20.038C15.8199 19.9958 15.6933 19.9326 15.5457 19.8904C15.2715 19.7849 14.9762 19.6794 14.6808 19.5951L13.7949 19.2787C13.6473 19.2365 13.4785 19.1521 13.3098 19.0677C13.141 18.9833 12.9933 18.8779 12.8457 18.7724C12.2551 18.3294 11.8332 17.6966 11.5801 17.0427C11.5379 16.9583 11.5168 16.874 11.4957 16.7896C11.4746 16.7052 11.4324 16.5997 11.4113 16.5365L11.3691 16.4099V16.3466L11.348 16.2833C11.3269 16.199 11.3058 16.0935 11.3058 15.988C11.2848 15.7982 11.2848 15.5872 11.3269 15.3763C11.3691 15.1654 11.4535 14.9755 11.559 14.7857C11.6855 14.5958 11.8543 14.4482 12.023 14.3427C12.1074 14.2794 12.2129 14.2372 12.2973 14.1951C12.3394 14.174 12.4027 14.1529 12.466 14.1529L12.5715 14.1318C12.8457 14.0896 13.0144 14.1107 13.2043 14.1318C13.373 14.1529 13.5418 14.1951 13.7105 14.2583C14.3433 14.4482 14.8918 14.6802 15.4191 14.9122C15.9465 15.1443 16.4105 15.3552 16.8746 15.5451C17.3387 15.7349 17.7605 15.9247 18.1191 16.0935C18.4988 16.2622 18.7941 16.4521 19.0473 16.6208C19.5324 16.9583 19.7644 17.1904 19.7644 17.1904C19.8488 17.2747 19.8277 17.4013 19.7644 17.4857C19.7223 17.5279 19.6379 17.549 19.5746 17.5279Z" fill="#E48C15"/>
<path d="M17.1914 11.2849C17.1914 11.2849 17.2125 11.5591 17.2547 11.981C17.2969 12.4028 17.3391 12.9724 17.3602 13.5208C17.4023 14.0903 17.4234 14.6388 17.4445 15.0606C17.4656 15.4825 17.4656 15.7567 17.4656 15.7567C17.4867 16.0099 17.2758 16.2208 17.0227 16.2208C16.7695 16.2419 16.5586 16.031 16.5586 15.7778V15.7356C16.5586 15.7356 16.5797 15.4614 16.6008 15.0396C16.6219 14.6177 16.643 14.0692 16.6641 13.4997C16.6852 12.9513 16.6852 12.3817 16.7062 11.9599V11.2638C16.7062 11.1372 16.8117 11.0317 16.9383 11.0317C17.0859 11.0739 17.1914 11.1794 17.1914 11.2849Z" fill="#E48C15"/>
<path d="M13.5 11.959L13.9008 14.3004C13.943 14.5535 13.7742 14.7855 13.5211 14.8277C13.268 14.8699 13.0359 14.7012 12.9937 14.448V14.3848L12.9727 12.0012C12.9727 11.8535 13.0781 11.748 13.2258 11.748C13.3734 11.748 13.4789 11.8324 13.5 11.959Z" fill="#E48C15"/>
<path d="M9.53438 12.719C9.53438 12.719 9.55547 12.8245 9.57656 13.0143C9.59766 13.2042 9.63984 13.4784 9.70313 13.8159C9.80859 14.4698 9.97734 15.3346 10.2727 16.1362C10.4203 16.537 10.6102 16.9167 10.8211 17.1909C11.032 17.4862 11.2852 17.6549 11.5383 17.7182C11.6648 17.7604 11.7703 17.7604 11.8758 17.7604H12.0234C12.0656 17.7604 12.1078 17.7604 12.15 17.7393C12.2344 17.7182 12.2977 17.7182 12.3398 17.6971C12.382 17.676 12.4031 17.676 12.4031 17.676H12.4242C12.6563 17.6128 12.9094 17.7604 12.9727 18.0135C13.0359 18.2456 12.8883 18.4987 12.6352 18.562H12.6141C12.6141 18.562 12.5719 18.562 12.5297 18.5831C12.4664 18.6042 12.382 18.6042 12.2555 18.6253C12.1922 18.6253 12.1289 18.6464 12.0656 18.6464H11.8336C11.6648 18.6464 11.475 18.6042 11.2641 18.5198C11.0742 18.4565 10.8633 18.3299 10.6734 18.1823C10.4836 18.0346 10.3359 17.8448 10.1883 17.6549C9.91406 17.2542 9.74531 16.8112 9.59766 16.3682C9.32344 15.4612 9.21797 14.5753 9.15469 13.9003C9.1125 13.5628 9.09141 13.2885 9.09141 13.0776C9.07031 12.8878 9.07031 12.7612 9.07031 12.7612C9.07031 12.6346 9.15469 12.5081 9.30234 12.5081C9.40781 12.487 9.51328 12.5924 9.53438 12.719Z" fill="#E48C15"/>
</g>
<defs>
<clipPath id="clip0">
<rect width="27" height="27" fill="white"/>
</clipPath>
</defs>
</svg>
