<svg width="37" height="50" viewBox="0 0 37 50" fill="none" xmlns="http://www.w3.org/2000/svg">
<path d="M2 2H27.5822C29.4326 2 31.2072 2.73507 32.5156 4.0435C33.8241 5.35194 34.5591 7.12655 34.5591 8.97696V41.5361C34.5591 42.1529 34.3141 42.7444 33.878 43.1806C33.4418 43.6167 32.8503 43.8617 32.2335 43.8617H25.2565" stroke="#919191" stroke-width="3" stroke-linecap="round" stroke-linejoin="round"/>
<path d="M2 2L19.6471 5.53034C21.2285 5.84643 22.6516 6.70062 23.6743 7.94761C24.697 9.19459 25.2561 10.7574 25.2565 12.3701V45.6758C25.2563 46.0197 25.1798 46.3593 25.0326 46.6701C24.8853 46.981 24.6709 47.2552 24.4049 47.4732C24.1388 47.6912 23.8278 47.8475 23.494 47.9308C23.1603 48.0141 22.8123 48.0223 22.475 47.9549L5.73965 44.6106C4.68483 44.3998 3.7357 43.8299 3.05385 42.9979C2.37199 42.1659 1.99957 41.1234 2 40.0477V2Z" stroke="#919191" stroke-width="3" stroke-linecap="round" stroke-linejoin="round"/>
<path d="M18.2793 25.2563V29.9077" stroke="#919191" stroke-width="3" stroke-linecap="round" stroke-linejoin="round"/>
</svg>
