<svg width="24" height="24" viewBox="0 0 24 24" fill="none" xmlns="http://www.w3.org/2000/svg">
<path d="M22 18.0048C22 18.5548 21.554 18.9998 21.005 18.9998H12.995C12.7311 18.9998 12.478 18.8949 12.2914 18.7083C12.1048 18.5217 12 18.2687 12 18.0048C12 17.7409 12.1048 17.4878 12.2914 17.3012C12.478 17.1146 12.7311 17.0098 12.995 17.0098H21.005C21.555 17.0098 22 17.4548 22 18.0048Z" fill="white"/>
<path d="M22 11.9999C22 12.5499 21.554 12.9949 21.005 12.9949H2.995C2.73111 12.9949 2.47803 12.8901 2.29143 12.7035C2.10483 12.5169 2 12.2638 2 11.9999C2 11.736 2.10483 11.4829 2.29143 11.2963C2.47803 11.1097 2.73111 11.0049 2.995 11.0049H21.005C21.555 11.0049 22 11.4509 22 11.9999Z" fill="white"/>
<path d="M21.005 6.99C21.2689 6.99 21.522 6.88517 21.7086 6.69857C21.8952 6.51197 22 6.25889 22 5.995C22 5.73111 21.8952 5.47803 21.7086 5.29143C21.522 5.10483 21.2689 5 21.005 5H8.995C8.86433 5 8.73495 5.02574 8.61423 5.07574C8.49351 5.12574 8.38382 5.19903 8.29143 5.29143C8.19903 5.38382 8.12574 5.49351 8.07574 5.61423C8.02574 5.73495 8 5.86433 8 5.995C8 6.12567 8.02574 6.25505 8.07574 6.37577C8.12574 6.49649 8.19903 6.60618 8.29143 6.69857C8.38382 6.79097 8.49351 6.86426 8.61423 6.91426C8.73495 6.96426 8.86433 6.99 8.995 6.99H21.005Z" fill="white"/>
</svg>
